<?xml version="1.0" standalone="no"?>
<!DOCTYPE svg PUBLIC "-//W3C//DTD SVG 20010904//EN"
 "http://www.w3.org/TR/2001/REC-SVG-20010904/DTD/svg10.dtd">
<svg version="1.0" xmlns="http://www.w3.org/2000/svg"
 width="64.000000pt" height="64.000000pt" viewBox="0 0 64.000000 64.000000"
 preserveAspectRatio="xMidYMid meet">

<g transform="translate(0.000000,64.000000) scale(0.100000,-0.100000)"
fill="#000000" stroke="none">
<path d="M73 519 c-18 -12 -33 -29 -33 -40 0 -10 -4 -19 -10 -19 -6 0 -10 -63
-10 -169 0 -152 2 -170 18 -176 21 -8 544 -8 566 1 14 5 16 29 16 178 -1 184
-2 191 -57 228 -38 25 -197 26 -224 2 -17 -15 -19 -15 -34 0 -26 26 -190 22
-232 -5z m231 -11 c13 -18 16 -54 16 -180 0 -87 -4 -158 -8 -158 -4 0 -12 4
-18 10 -5 5 -54 11 -109 12 l-100 3 -3 154 c-2 104 1 158 9 167 8 10 37 14
105 14 85 0 94 -2 108 -22z m245 8 c8 -9 11 -63 9 -167 l-3 -154 -99 -3 c-55
-1 -106 -8 -113 -14 -11 -8 -13 21 -13 160 0 152 2 172 18 181 27 16 187 14
201 -3z m-394 -339 c68 -3 68 -4 -10 -3 -72 1 -80 3 -83 21 -4 19 -3 19 10 3
9 -13 32 -18 83 -21z m422 8 c-5 -12 -25 -15 -114 -13 l-108 2 103 3 c80 3
104 7 109 19 3 8 8 13 10 10 3 -3 3 -12 0 -21z m-307 -35 c0 -22 -4 -28 -15
-24 -8 4 -15 17 -15 30 0 15 6 24 15 24 10 0 15 -10 15 -30z"/>
<path d="M158 473 c23 -2 59 -2 80 0 20 2 1 4 -43 4 -44 0 -61 -2 -37 -4z"/>
<path d="M158 423 c23 -2 59 -2 80 0 20 2 1 4 -43 4 -44 0 -61 -2 -37 -4z"/>
<path d="M93 385 c0 -22 2 -30 4 -17 2 12 2 30 0 40 -3 9 -5 -1 -4 -23z"/>
<path d="M158 383 c23 -2 59 -2 80 0 20 2 1 4 -43 4 -44 0 -61 -2 -37 -4z"/>
<path d="M158 333 c23 -2 59 -2 80 0 20 2 1 4 -43 4 -44 0 -61 -2 -37 -4z"/>
<path d="M157 283 c24 -2 62 -2 85 0 24 2 5 4 -42 4 -47 0 -66 -2 -43 -4z"/>
<path d="M157 233 c24 -2 62 -2 85 0 24 2 5 4 -42 4 -47 0 -66 -2 -43 -4z"/>
<path d="M406 489 c-17 -14 -26 -30 -26 -50 0 -74 109 -96 133 -26 8 21 -6 22
-23 2 -18 -21 -46 -19 -63 6 -18 25 -11 56 14 64 10 4 19 11 19 16 0 16 -26
10 -54 -12z m36 -99 c17 -6 19 -9 6 -9 -25 -1 -58 35 -58 62 1 18 3 17 15 -11
8 -18 24 -36 37 -42z"/>
<path d="M442 468 c-12 -17 -2 -42 19 -46 20 -3 31 32 16 47 -14 14 -22 14
-35 -1z m28 -18 c0 -5 -4 -10 -10 -10 -5 0 -10 5 -10 10 0 6 5 10 10 10 6 0
10 -4 10 -10z"/>
<path d="M398 333 c23 -2 61 -2 85 0 23 2 4 4 -43 4 -47 0 -66 -2 -42 -4z"/>
<path d="M398 283 c23 -2 61 -2 85 0 23 2 4 4 -43 4 -47 0 -66 -2 -42 -4z"/>
<path d="M398 233 c23 -2 61 -2 85 0 23 2 4 4 -43 4 -47 0 -66 -2 -42 -4z"/>
</g>
</svg>
